<svg width="20" height="20" viewBox="0 0 20 20" fill="none" xmlns="http://www.w3.org/2000/svg">
<path d="M9.56712 2.91557C9.72724 2.53059 10.2726 2.53059 10.4327 2.91557L12.2044 7.17511C12.2719 7.33741 12.4245 7.4483 12.5997 7.46235L17.1983 7.83101C17.6139 7.86433 17.7824 8.38301 17.4657 8.65426L13.9621 11.6555C13.8287 11.7698 13.7704 11.9492 13.8111 12.1202L14.8815 16.6076C14.9783 17.0132 14.5371 17.3338 14.1813 17.1164L10.2443 14.7117C10.0943 14.6201 9.90559 14.6201 9.75558 14.7117L5.81859 17.1164C5.46276 17.3338 5.02155 17.0132 5.1183 16.6076L6.18871 12.1202C6.22949 11.9492 6.17119 11.7698 6.0377 11.6555L2.53409 8.65426C2.21744 8.38301 2.38596 7.86433 2.80158 7.83101L7.40012 7.46235C7.57534 7.4483 7.72797 7.33741 7.79547 7.17511L9.56712 2.91557Z" stroke="white" stroke-linecap="round" stroke-linejoin="round"/>
</svg>
