<svg width="348" height="235" viewBox="0 0 348 235" fill="none" xmlns="http://www.w3.org/2000/svg">
<path d="M90.5 116.5C89.7868 122.873 89.6195 125.935 89.5 131C93.5604 127.647 96.0136 125.776 101.5 122.5L101 105C95.8368 109.112 93.3757 111.572 90.5 116.5Z" fill="white"/>
<path d="M112 119V98C121.362 94.6732 126.617 93.6737 136 93L135.5 115C125.976 115.489 120.868 116.491 112 119Z" fill="white"/>
<path d="M149 115L150 93C160.074 93.1729 165.527 94.0194 175 96.5L173.5 119C164.721 116.644 159.495 115.63 149 115Z" fill="white"/>
<path d="M197.5 78L202.5 63L224 70L218.5 85L197.5 78Z" fill="white"/>
<path d="M218.5 134.5L221.5 114.5C229.351 118.368 233.835 121.249 242 128L239 146C230.83 140.628 226.332 138.1 218.5 134.5Z" fill="white"/>
<path d="M249 153.5L251.5 136C254.988 140.139 256.804 142.519 259.5 147V163C255.723 158.964 253.516 156.791 249 153.5Z" fill="white"/>
<path d="M153 181L168 150L193 158.5L185 181H153Z" fill="white"/>
<path d="M123.5 125.5C106.79 128.777 84.5 145 84.5 145C91.0694 133.936 111.5 125.5 122.5 124C133.5 122.5 152.411 122.903 148 123L148.5 124.5C148.5 124.5 133.088 123.62 123.5 125.5Z" fill="white"/>
<path d="M90.5 116.5C89.7868 122.873 89.6195 125.935 89.5 131C93.5604 127.647 96.0136 125.776 101.5 122.5L101 105C95.8368 109.112 93.3757 111.572 90.5 116.5Z" stroke="#9D2DC5" stroke-width="1.5" stroke-linejoin="round"/>
<path d="M112 119V98C121.362 94.6732 126.617 93.6737 136 93L135.5 115C125.976 115.489 120.868 116.491 112 119Z" stroke="#9D2DC5" stroke-width="1.5" stroke-linejoin="round"/>
<path d="M149 115L150 93C160.074 93.1729 165.527 94.0194 175 96.5L173.5 119C164.721 116.644 159.495 115.63 149 115Z" stroke="#9D2DC5" stroke-width="1.5" stroke-linejoin="round"/>
<path d="M197.5 78L202.5 63L224 70L218.5 85L197.5 78Z" stroke="#9D2DC5" stroke-width="1.5" stroke-linejoin="round"/>
<path d="M218.5 134.5L221.5 114.5C229.351 118.368 233.835 121.249 242 128L239 146C230.83 140.628 226.332 138.1 218.5 134.5Z" stroke="#9D2DC5" stroke-width="1.5" stroke-linejoin="round"/>
<path d="M249 153.5L251.5 136C254.988 140.139 256.804 142.519 259.5 147V163C255.723 158.964 253.516 156.791 249 153.5Z" stroke="#9D2DC5" stroke-width="1.5" stroke-linejoin="round"/>
<path d="M153 181L168 150L193 158.5L185 181H153Z" stroke="#9D2DC5" stroke-width="1.5" stroke-linejoin="round"/>
<path d="M123.5 125.5C106.79 128.777 84.5 145 84.5 145C91.0694 133.936 111.5 125.5 122.5 124C133.5 122.5 152.411 122.903 148 123L148.5 124.5C148.5 124.5 133.088 123.62 123.5 125.5Z" stroke="#9D2DC5" stroke-width="1.5" stroke-linejoin="round"/>
<path d="M186 110C185.333 111.667 183.9 116.4 183.5 122C192.015 124.928 196.833 126.682 205.5 130C205.712 125.101 206.177 122.3 207.5 117.5L186 110Z" fill="white" stroke="#9D2DC5" stroke-width="1.5" stroke-linejoin="round"/>
<path d="M92 1.5L44 181H80V172C79 170.5 74.2108 170 75.7108 161.5C77.2108 153 112.211 40.5 112.211 40.5L129.5 81.5C141.658 78.4734 149.066 78.3096 163.5 80.5L130.5 1.5H92Z" fill="white"/>
<path d="M160.5 150L149 123.5C157.446 123.774 162.06 124.383 170 126.5L160.5 150Z" fill="white"/>
<path d="M92 1.5L44 181H80V172C79 170.5 74.2108 170 75.7108 161.5C77.2108 153 112.211 40.5 112.211 40.5L129.5 81.5C141.658 78.4734 149.066 78.3096 163.5 80.5L130.5 1.5H92Z" stroke="#9D2DC5" stroke-width="1.5" stroke-linejoin="round"/>
<path d="M160.5 150L149 123.5C157.446 123.774 162.06 124.383 170 126.5L160.5 150Z" stroke="#9D2DC5" stroke-width="1.5" stroke-linejoin="round"/>
<path d="M210.5 9.5L210 1H218V3L185 89L183.5 89.5V88.5L210.5 9.5Z" fill="white"/>
<path d="M207.5 49.5L221.5 1H255.5L300 181H259.5C259.5 181 257.5 174 257 172.5C256.5 171 228.5 149.931 201.5 138C197.287 136.138 194.352 134.858 192.399 134.022C191.615 133.773 190.919 133.555 190.305 133.366C193.143 134.792 200 138 200 138L197.5 145H195.5L173.5 138L177.5 129L187.984 133.193C185.755 132.217 185.289 131.823 190.305 133.366C188.525 132.472 188.327 132.279 192.399 134.022C194.649 134.736 197.629 135.71 201.5 137C233 147.5 263 175 263 175V172L263.5 170.5L269.5 170L254.5 114.5H237C228.816 108.086 223.617 105.075 213.5 100.5L210 107.5L189 99.5L193.5 88.5L216.5 96V94H249L234.5 40.5L229 56.5L207.5 49.5Z" fill="white"/>
<path d="M210 1L210.5 9.5L183.5 88.5V89.5L185 89L218 3V1H210ZM221.5 1L207.5 49.5L229 56.5L234.5 40.5L249 94H216.5V96L193.5 88.5L189 99.5L210 107.5L213.5 100.5C223.617 105.075 228.816 108.086 237 114.5H254.5L269.5 170L263.5 170.5L263 172V175C263 175 233 147.5 201.5 137C170 126.5 197.5 137 197.5 137L177.5 129L173.5 138L195.5 145H197.5L200 138C200 138 174.5 126.069 201.5 138C228.5 149.931 256.5 171 257 172.5C257.5 174 259.5 181 259.5 181H300L255.5 1H221.5Z" stroke="#9D2DC5" stroke-width="1.5" stroke-linejoin="round"/>
<mask id="path-6-outside-1_79_9" maskUnits="userSpaceOnUse" x="2" y="178" width="337" height="46" fill="black">
<rect fill="white" x="2" y="178" width="337" height="46"/>
<path d="M3.64 222V185.6H12.116L27.196 210.352H22.724L37.388 185.6H45.864L45.968 222H36.504L36.4 200.004H38.012L27.04 218.412H22.464L11.18 200.004H13.156V222H3.64ZM66.9293 222.468C63.8439 222.468 61.1053 221.844 58.7133 220.596C56.3213 219.348 54.4319 217.632 53.0453 215.448C51.6933 213.229 51.0173 210.699 51.0173 207.856C51.0173 205.013 51.6933 202.5 53.0453 200.316C54.4319 198.132 56.3213 196.433 58.7133 195.22C61.1053 193.972 63.8439 193.348 66.9293 193.348C70.0146 193.348 72.7533 193.972 75.1453 195.22C77.572 196.433 79.4613 198.132 80.8133 200.316C82.1653 202.5 82.8413 205.013 82.8413 207.856C82.8413 210.699 82.1653 213.229 80.8133 215.448C79.4613 217.632 77.572 219.348 75.1453 220.596C72.7533 221.844 70.0146 222.468 66.9293 222.468ZM66.9293 214.616C68.0733 214.616 69.0786 214.356 69.9453 213.836C70.8466 213.316 71.5573 212.553 72.0773 211.548C72.5973 210.508 72.8573 209.277 72.8573 207.856C72.8573 206.435 72.5973 205.239 72.0773 204.268C71.5573 203.263 70.8466 202.5 69.9453 201.98C69.0786 201.46 68.0733 201.2 66.9293 201.2C65.8199 201.2 64.8146 201.46 63.9133 201.98C63.0466 202.5 62.3359 203.263 61.7813 204.268C61.2613 205.239 61.0013 206.435 61.0013 207.856C61.0013 209.277 61.2613 210.508 61.7813 211.548C62.3359 212.553 63.0466 213.316 63.9133 213.836C64.8146 214.356 65.8199 214.616 66.9293 214.616ZM94.5084 222L82.9124 193.816H93.0524L102.308 217.372H97.2124L106.936 193.816H116.348L104.7 222H94.5084ZM118.902 222V193.816H128.782V222H118.902ZM123.842 190.696C122.04 190.696 120.584 190.193 119.474 189.188C118.365 188.183 117.81 186.935 117.81 185.444C117.81 183.953 118.365 182.705 119.474 181.7C120.584 180.695 122.04 180.192 123.842 180.192C125.645 180.192 127.101 180.677 128.21 181.648C129.32 182.584 129.874 183.797 129.874 185.288C129.874 186.848 129.32 188.148 128.21 189.188C127.136 190.193 125.68 190.696 123.842 190.696ZM149.971 222.468C146.643 222.468 143.731 221.844 141.235 220.596C138.774 219.313 136.85 217.58 135.463 215.396C134.111 213.177 133.435 210.664 133.435 207.856C133.435 205.048 134.094 202.552 135.411 200.368C136.763 198.149 138.618 196.433 140.975 195.22C143.333 193.972 145.985 193.348 148.931 193.348C151.705 193.348 154.235 193.92 156.523 195.064C158.811 196.173 160.631 197.82 161.983 200.004C163.335 202.188 164.011 204.84 164.011 207.96C164.011 208.307 163.994 208.705 163.959 209.156C163.925 209.607 163.89 210.023 163.855 210.404H141.547V205.204H158.603L154.859 206.66C154.894 205.377 154.651 204.268 154.131 203.332C153.646 202.396 152.953 201.668 152.051 201.148C151.185 200.628 150.162 200.368 148.983 200.368C147.805 200.368 146.765 200.628 145.863 201.148C144.997 201.668 144.321 202.413 143.835 203.384C143.35 204.32 143.107 205.429 143.107 206.712V208.22C143.107 209.607 143.385 210.803 143.939 211.808C144.529 212.813 145.361 213.593 146.435 214.148C147.51 214.668 148.793 214.928 150.283 214.928C151.67 214.928 152.849 214.737 153.819 214.356C154.825 213.94 155.813 213.316 156.783 212.484L161.983 217.892C160.631 219.383 158.967 220.527 156.991 221.324C155.015 222.087 152.675 222.468 149.971 222.468ZM193.371 185.6H203.667V222H193.371V185.6ZM179.331 222H169.035V185.6H179.331V222ZM194.099 207.804H178.603V199.276H194.099V207.804ZM227.673 222V216.748L226.997 215.448V205.776C226.997 204.216 226.512 203.02 225.541 202.188C224.605 201.321 223.097 200.888 221.017 200.888C219.665 200.888 218.296 201.113 216.909 201.564C215.522 201.98 214.344 202.569 213.373 203.332L210.045 196.624C211.64 195.584 213.546 194.787 215.765 194.232C218.018 193.643 220.254 193.348 222.473 193.348C227.049 193.348 230.585 194.405 233.081 196.52C235.612 198.6 236.877 201.876 236.877 206.348V222H227.673ZM219.353 222.468C217.1 222.468 215.193 222.087 213.633 221.324C212.073 220.561 210.877 219.521 210.045 218.204C209.248 216.887 208.849 215.413 208.849 213.784C208.849 212.051 209.282 210.56 210.149 209.312C211.05 208.029 212.42 207.059 214.257 206.4C216.094 205.707 218.469 205.36 221.381 205.36H228.037V210.508H222.733C221.138 210.508 220.012 210.768 219.353 211.288C218.729 211.808 218.417 212.501 218.417 213.368C218.417 214.235 218.746 214.928 219.405 215.448C220.064 215.968 220.965 216.228 222.109 216.228C223.184 216.228 224.154 215.968 225.021 215.448C225.922 214.893 226.581 214.061 226.997 212.952L228.349 216.592C227.829 218.533 226.806 220.007 225.281 221.012C223.79 221.983 221.814 222.468 219.353 222.468ZM250.458 222L238.862 193.816H249.002L258.258 217.372H253.162L262.886 193.816H272.298L260.65 222H250.458ZM288.858 222.468C285.53 222.468 282.618 221.844 280.122 220.596C277.661 219.313 275.737 217.58 274.35 215.396C272.998 213.177 272.322 210.664 272.322 207.856C272.322 205.048 272.981 202.552 274.298 200.368C275.65 198.149 277.505 196.433 279.862 195.22C282.219 193.972 284.871 193.348 287.818 193.348C290.591 193.348 293.122 193.92 295.41 195.064C297.698 196.173 299.518 197.82 300.87 200.004C302.222 202.188 302.898 204.84 302.898 207.96C302.898 208.307 302.881 208.705 302.846 209.156C302.811 209.607 302.777 210.023 302.742 210.404H280.434V205.204H297.49L293.746 206.66C293.781 205.377 293.538 204.268 293.018 203.332C292.533 202.396 291.839 201.668 290.938 201.148C290.071 200.628 289.049 200.368 287.87 200.368C286.691 200.368 285.651 200.628 284.75 201.148C283.883 201.668 283.207 202.413 282.722 203.384C282.237 204.32 281.994 205.429 281.994 206.712V208.22C281.994 209.607 282.271 210.803 282.826 211.808C283.415 212.813 284.247 213.593 285.322 214.148C286.397 214.668 287.679 214.928 289.17 214.928C290.557 214.928 291.735 214.737 292.706 214.356C293.711 213.94 294.699 213.316 295.67 212.484L300.87 217.892C299.518 219.383 297.854 220.527 295.878 221.324C293.902 222.087 291.562 222.468 288.858 222.468ZM325.809 193.348C327.993 193.348 329.969 193.799 331.737 194.7C333.505 195.567 334.892 196.919 335.897 198.756C336.937 200.593 337.457 202.968 337.457 205.88V222H327.577V207.492C327.577 205.481 327.161 204.025 326.329 203.124C325.532 202.188 324.405 201.72 322.949 201.72C321.909 201.72 320.956 201.963 320.089 202.448C319.223 202.899 318.547 203.609 318.061 204.58C317.576 205.551 317.333 206.816 317.333 208.376V222H307.453V193.816H316.865V201.824L315.045 199.484C316.12 197.439 317.593 195.913 319.465 194.908C321.337 193.868 323.452 193.348 325.809 193.348Z"/>
</mask>
<path d="M3.64 222V185.6H12.116L27.196 210.352H22.724L37.388 185.6H45.864L45.968 222H36.504L36.4 200.004H38.012L27.04 218.412H22.464L11.18 200.004H13.156V222H3.64ZM66.9293 222.468C63.8439 222.468 61.1053 221.844 58.7133 220.596C56.3213 219.348 54.4319 217.632 53.0453 215.448C51.6933 213.229 51.0173 210.699 51.0173 207.856C51.0173 205.013 51.6933 202.5 53.0453 200.316C54.4319 198.132 56.3213 196.433 58.7133 195.22C61.1053 193.972 63.8439 193.348 66.9293 193.348C70.0146 193.348 72.7533 193.972 75.1453 195.22C77.572 196.433 79.4613 198.132 80.8133 200.316C82.1653 202.5 82.8413 205.013 82.8413 207.856C82.8413 210.699 82.1653 213.229 80.8133 215.448C79.4613 217.632 77.572 219.348 75.1453 220.596C72.7533 221.844 70.0146 222.468 66.9293 222.468ZM66.9293 214.616C68.0733 214.616 69.0786 214.356 69.9453 213.836C70.8466 213.316 71.5573 212.553 72.0773 211.548C72.5973 210.508 72.8573 209.277 72.8573 207.856C72.8573 206.435 72.5973 205.239 72.0773 204.268C71.5573 203.263 70.8466 202.5 69.9453 201.98C69.0786 201.46 68.0733 201.2 66.9293 201.2C65.8199 201.2 64.8146 201.46 63.9133 201.98C63.0466 202.5 62.3359 203.263 61.7813 204.268C61.2613 205.239 61.0013 206.435 61.0013 207.856C61.0013 209.277 61.2613 210.508 61.7813 211.548C62.3359 212.553 63.0466 213.316 63.9133 213.836C64.8146 214.356 65.8199 214.616 66.9293 214.616ZM94.5084 222L82.9124 193.816H93.0524L102.308 217.372H97.2124L106.936 193.816H116.348L104.7 222H94.5084ZM118.902 222V193.816H128.782V222H118.902ZM123.842 190.696C122.04 190.696 120.584 190.193 119.474 189.188C118.365 188.183 117.81 186.935 117.81 185.444C117.81 183.953 118.365 182.705 119.474 181.7C120.584 180.695 122.04 180.192 123.842 180.192C125.645 180.192 127.101 180.677 128.21 181.648C129.32 182.584 129.874 183.797 129.874 185.288C129.874 186.848 129.32 188.148 128.21 189.188C127.136 190.193 125.68 190.696 123.842 190.696ZM149.971 222.468C146.643 222.468 143.731 221.844 141.235 220.596C138.774 219.313 136.85 217.58 135.463 215.396C134.111 213.177 133.435 210.664 133.435 207.856C133.435 205.048 134.094 202.552 135.411 200.368C136.763 198.149 138.618 196.433 140.975 195.22C143.333 193.972 145.985 193.348 148.931 193.348C151.705 193.348 154.235 193.92 156.523 195.064C158.811 196.173 160.631 197.82 161.983 200.004C163.335 202.188 164.011 204.84 164.011 207.96C164.011 208.307 163.994 208.705 163.959 209.156C163.925 209.607 163.89 210.023 163.855 210.404H141.547V205.204H158.603L154.859 206.66C154.894 205.377 154.651 204.268 154.131 203.332C153.646 202.396 152.953 201.668 152.051 201.148C151.185 200.628 150.162 200.368 148.983 200.368C147.805 200.368 146.765 200.628 145.863 201.148C144.997 201.668 144.321 202.413 143.835 203.384C143.35 204.32 143.107 205.429 143.107 206.712V208.22C143.107 209.607 143.385 210.803 143.939 211.808C144.529 212.813 145.361 213.593 146.435 214.148C147.51 214.668 148.793 214.928 150.283 214.928C151.67 214.928 152.849 214.737 153.819 214.356C154.825 213.94 155.813 213.316 156.783 212.484L161.983 217.892C160.631 219.383 158.967 220.527 156.991 221.324C155.015 222.087 152.675 222.468 149.971 222.468ZM193.371 185.6H203.667V222H193.371V185.6ZM179.331 222H169.035V185.6H179.331V222ZM194.099 207.804H178.603V199.276H194.099V207.804ZM227.673 222V216.748L226.997 215.448V205.776C226.997 204.216 226.512 203.02 225.541 202.188C224.605 201.321 223.097 200.888 221.017 200.888C219.665 200.888 218.296 201.113 216.909 201.564C215.522 201.98 214.344 202.569 213.373 203.332L210.045 196.624C211.64 195.584 213.546 194.787 215.765 194.232C218.018 193.643 220.254 193.348 222.473 193.348C227.049 193.348 230.585 194.405 233.081 196.52C235.612 198.6 236.877 201.876 236.877 206.348V222H227.673ZM219.353 222.468C217.1 222.468 215.193 222.087 213.633 221.324C212.073 220.561 210.877 219.521 210.045 218.204C209.248 216.887 208.849 215.413 208.849 213.784C208.849 212.051 209.282 210.56 210.149 209.312C211.05 208.029 212.42 207.059 214.257 206.4C216.094 205.707 218.469 205.36 221.381 205.36H228.037V210.508H222.733C221.138 210.508 220.012 210.768 219.353 211.288C218.729 211.808 218.417 212.501 218.417 213.368C218.417 214.235 218.746 214.928 219.405 215.448C220.064 215.968 220.965 216.228 222.109 216.228C223.184 216.228 224.154 215.968 225.021 215.448C225.922 214.893 226.581 214.061 226.997 212.952L228.349 216.592C227.829 218.533 226.806 220.007 225.281 221.012C223.79 221.983 221.814 222.468 219.353 222.468ZM250.458 222L238.862 193.816H249.002L258.258 217.372H253.162L262.886 193.816H272.298L260.65 222H250.458ZM288.858 222.468C285.53 222.468 282.618 221.844 280.122 220.596C277.661 219.313 275.737 217.58 274.35 215.396C272.998 213.177 272.322 210.664 272.322 207.856C272.322 205.048 272.981 202.552 274.298 200.368C275.65 198.149 277.505 196.433 279.862 195.22C282.219 193.972 284.871 193.348 287.818 193.348C290.591 193.348 293.122 193.92 295.41 195.064C297.698 196.173 299.518 197.82 300.87 200.004C302.222 202.188 302.898 204.84 302.898 207.96C302.898 208.307 302.881 208.705 302.846 209.156C302.811 209.607 302.777 210.023 302.742 210.404H280.434V205.204H297.49L293.746 206.66C293.781 205.377 293.538 204.268 293.018 203.332C292.533 202.396 291.839 201.668 290.938 201.148C290.071 200.628 289.049 200.368 287.87 200.368C286.691 200.368 285.651 200.628 284.75 201.148C283.883 201.668 283.207 202.413 282.722 203.384C282.237 204.32 281.994 205.429 281.994 206.712V208.22C281.994 209.607 282.271 210.803 282.826 211.808C283.415 212.813 284.247 213.593 285.322 214.148C286.397 214.668 287.679 214.928 289.17 214.928C290.557 214.928 291.735 214.737 292.706 214.356C293.711 213.94 294.699 213.316 295.67 212.484L300.87 217.892C299.518 219.383 297.854 220.527 295.878 221.324C293.902 222.087 291.562 222.468 288.858 222.468ZM325.809 193.348C327.993 193.348 329.969 193.799 331.737 194.7C333.505 195.567 334.892 196.919 335.897 198.756C336.937 200.593 337.457 202.968 337.457 205.88V222H327.577V207.492C327.577 205.481 327.161 204.025 326.329 203.124C325.532 202.188 324.405 201.72 322.949 201.72C321.909 201.72 320.956 201.963 320.089 202.448C319.223 202.899 318.547 203.609 318.061 204.58C317.576 205.551 317.333 206.816 317.333 208.376V222H307.453V193.816H316.865V201.824L315.045 199.484C316.12 197.439 317.593 195.913 319.465 194.908C321.337 193.868 323.452 193.348 325.809 193.348Z" fill="white"/>
<path d="M3.64 222H2.14C2.14 222.828 2.81157 223.5 3.64 223.5L3.64 222ZM3.64 185.6V184.1C2.81157 184.1 2.14 184.772 2.14 185.6H3.64ZM12.116 185.6L13.397 184.82C13.1247 184.373 12.6393 184.1 12.116 184.1V185.6ZM27.196 210.352V211.852C27.7382 211.852 28.2382 211.559 28.5038 211.087C28.7693 210.614 28.7591 210.035 28.477 209.572L27.196 210.352ZM22.724 210.352L21.4335 209.587C21.1588 210.051 21.1539 210.626 21.4208 211.095C21.6876 211.563 22.1851 211.852 22.724 211.852V210.352ZM37.388 185.6V184.1C36.8581 184.1 36.3676 184.38 36.0975 184.835L37.388 185.6ZM45.864 185.6L47.364 185.596C47.3616 184.769 46.6908 184.1 45.864 184.1V185.6ZM45.968 222V223.5C46.3666 223.5 46.7488 223.341 47.0302 223.059C47.3116 222.777 47.4691 222.394 47.468 221.996L45.968 222ZM36.504 222L35.004 222.007C35.0079 222.833 35.6783 223.5 36.504 223.5V222ZM36.4 200.004V198.504C36.0009 198.504 35.6183 198.663 35.3368 198.946C35.0553 199.229 34.8981 199.612 34.9 200.011L36.4 200.004ZM38.012 200.004L39.3005 200.772C39.5768 200.308 39.5828 199.732 39.3162 199.263C39.0497 198.794 38.5516 198.504 38.012 198.504V200.004ZM27.04 218.412V219.912C27.5685 219.912 28.0579 219.634 28.3285 219.18L27.04 218.412ZM22.464 218.412L21.1852 219.196C21.4579 219.641 21.9422 219.912 22.464 219.912V218.412ZM11.18 200.004V198.504C10.637 198.504 10.1365 198.797 9.8712 199.271C9.60594 199.745 9.61739 200.325 9.90115 200.788L11.18 200.004ZM13.156 200.004H14.656C14.656 199.176 13.9844 198.504 13.156 198.504V200.004ZM13.156 222V223.5C13.9844 223.5 14.656 222.828 14.656 222H13.156ZM5.14 222V185.6H2.14V222H5.14ZM3.64 187.1H12.116V184.1H3.64V187.1ZM10.835 186.38L25.915 211.132L28.477 209.572L13.397 184.82L10.835 186.38ZM27.196 208.852H22.724V211.852H27.196V208.852ZM24.0145 211.117L38.6785 186.365L36.0975 184.835L21.4335 209.587L24.0145 211.117ZM37.388 187.1H45.864V184.1H37.388V187.1ZM44.364 185.604L44.468 222.004L47.468 221.996L47.364 185.596L44.364 185.604ZM45.968 220.5H36.504V223.5H45.968V220.5ZM38.004 221.993L37.9 199.997L34.9 200.011L35.004 222.007L38.004 221.993ZM36.4 201.504H38.012V198.504H36.4V201.504ZM36.7235 199.236L25.7515 217.644L28.3285 219.18L39.3005 200.772L36.7235 199.236ZM27.04 216.912H22.464V219.912H27.04V216.912ZM23.7429 217.628L12.4589 199.22L9.90115 200.788L21.1852 219.196L23.7429 217.628ZM11.18 201.504H13.156V198.504H11.18V201.504ZM11.656 200.004V222H14.656V200.004H11.656ZM13.156 220.5H3.64V223.5H13.156V220.5ZM58.7133 220.596L59.4071 219.266L58.7133 220.596ZM53.0453 215.448L51.7644 216.229C51.7692 216.236 51.774 216.244 51.779 216.252L53.0453 215.448ZM53.0453 200.316L51.779 199.512C51.7759 199.517 51.7729 199.522 51.7699 199.526L53.0453 200.316ZM58.7133 195.22L59.3918 196.558C59.397 196.555 59.4021 196.553 59.4071 196.55L58.7133 195.22ZM75.1453 195.22L74.4514 196.55C74.4591 196.554 74.4668 196.558 74.4745 196.562L75.1453 195.22ZM80.8133 200.316L79.5379 201.106L79.5379 201.106L80.8133 200.316ZM80.8133 215.448L82.0887 216.238L82.0942 216.229L80.8133 215.448ZM75.1453 220.596L74.4592 219.262L74.4514 219.266L75.1453 220.596ZM69.9453 213.836L69.1957 212.537C69.1883 212.541 69.1809 212.545 69.1735 212.55L69.9453 213.836ZM72.0773 211.548L73.4096 212.237C73.4128 212.231 73.4159 212.225 73.4189 212.219L72.0773 211.548ZM72.0773 204.268L70.745 204.957C70.7483 204.964 70.7516 204.97 70.7551 204.976L72.0773 204.268ZM69.9453 201.98L69.1735 203.266C69.1809 203.271 69.1883 203.275 69.1957 203.279L69.9453 201.98ZM63.9133 201.98L63.1637 200.681C63.1563 200.685 63.1489 200.689 63.1415 200.694L63.9133 201.98ZM61.7813 204.268L60.4679 203.543C60.4649 203.549 60.462 203.554 60.4591 203.56L61.7813 204.268ZM61.7813 211.548L60.4396 212.219C60.4487 212.237 60.4581 212.255 60.4679 212.273L61.7813 211.548ZM63.9133 213.836L63.1415 215.122C63.1489 215.127 63.1563 215.131 63.1637 215.135L63.9133 213.836ZM66.9293 220.968C64.0506 220.968 61.556 220.387 59.4071 219.266L58.0194 221.926C60.6546 223.301 63.6373 223.968 66.9293 223.968V220.968ZM59.4071 219.266C57.2384 218.135 55.5508 216.596 54.3116 214.644L51.779 216.252C53.3131 218.668 55.4042 220.561 58.0194 221.926L59.4071 219.266ZM54.3262 214.667C53.1308 212.706 52.5173 210.45 52.5173 207.856H49.5173C49.5173 210.947 50.2558 213.753 51.7644 216.229L54.3262 214.667ZM52.5173 207.856C52.5173 205.262 53.1309 203.028 54.3207 201.106L51.7699 199.526C50.2557 201.972 49.5173 204.765 49.5173 207.856H52.5173ZM54.3116 201.12C55.5484 199.172 57.2309 197.654 59.3918 196.558L58.0347 193.882C55.4117 195.213 53.3155 197.092 51.779 199.512L54.3116 201.12ZM59.4071 196.55C61.556 195.429 64.0506 194.848 66.9293 194.848V191.848C63.6373 191.848 60.6546 192.515 58.0194 193.89L59.4071 196.55ZM66.9293 194.848C69.808 194.848 72.3026 195.429 74.4514 196.55L75.8391 193.89C73.204 192.515 70.2213 191.848 66.9293 191.848V194.848ZM74.4745 196.562C76.6669 197.658 78.3407 199.172 79.5379 201.106L82.0887 199.526C80.5819 197.092 78.477 195.209 75.8161 193.878L74.4745 196.562ZM79.5379 201.106C80.7277 203.028 81.3413 205.262 81.3413 207.856H84.3413C84.3413 204.765 83.6029 201.972 82.0887 199.526L79.5379 201.106ZM81.3413 207.856C81.3413 210.45 80.7278 212.706 79.5324 214.667L82.0942 216.229C83.6028 213.753 84.3413 210.947 84.3413 207.856H81.3413ZM79.5379 214.658C78.3383 216.596 76.6594 218.131 74.4593 219.262L75.8313 221.93C78.4845 220.565 80.5843 218.668 82.0887 216.238L79.5379 214.658ZM74.4514 219.266C72.3026 220.387 69.8079 220.968 66.9293 220.968V223.968C70.2213 223.968 73.204 223.301 75.8391 221.926L74.4514 219.266ZM66.9293 216.116C68.3085 216.116 69.5877 215.8 70.717 215.122L69.1735 212.55C68.5695 212.912 67.8381 213.116 66.9293 213.116V216.116ZM70.6949 215.135C71.8666 214.459 72.7698 213.474 73.4096 212.237L70.745 210.859C70.3448 211.633 69.8266 212.173 69.1957 212.537L70.6949 215.135ZM73.4189 212.219C74.0637 210.929 74.3573 209.459 74.3573 207.856H71.3573C71.3573 209.095 71.1309 210.087 70.7356 210.877L73.4189 212.219ZM74.3573 207.856C74.3573 206.257 74.0652 204.802 73.3995 203.56L70.7551 204.976C71.1293 205.675 71.3573 206.612 71.3573 207.856H74.3573ZM73.4096 203.579C72.7698 202.342 71.8666 201.357 70.6949 200.681L69.1957 203.279C69.8266 203.643 70.3448 204.183 70.745 204.957L73.4096 203.579ZM70.717 200.694C69.5877 200.016 68.3085 199.7 66.9293 199.7V202.7C67.8381 202.7 68.5695 202.904 69.1735 203.266L70.717 200.694ZM66.9293 199.7C65.5748 199.7 64.3081 200.021 63.1637 200.681L64.6629 203.279C65.3212 202.899 66.0651 202.7 66.9293 202.7V199.7ZM63.1415 200.694C62.0185 201.368 61.1327 202.338 60.4679 203.543L63.0946 204.993C63.5392 204.187 64.0748 203.632 64.685 203.266L63.1415 200.694ZM60.4591 203.56C59.7933 204.802 59.5013 206.257 59.5013 207.856H62.5013C62.5013 206.612 62.7292 205.675 63.1035 204.976L60.4591 203.56ZM59.5013 207.856C59.5013 209.459 59.7949 210.929 60.4396 212.219L63.1229 210.877C62.7277 210.087 62.5013 209.095 62.5013 207.856H59.5013ZM60.4679 212.273C61.1327 213.478 62.0185 214.448 63.1415 215.122L64.685 212.55C64.0748 212.184 63.5392 211.629 63.0946 210.823L60.4679 212.273ZM63.1637 215.135C64.3081 215.795 65.5748 216.116 66.9293 216.116V213.116C66.0651 213.116 65.3212 212.917 64.6629 212.537L63.1637 215.135ZM94.5084 222L93.1212 222.571C93.3525 223.133 93.9004 223.5 94.5084 223.5V222ZM82.9124 193.816V192.316C82.412 192.316 81.9446 192.565 81.6662 192.981C81.3877 193.397 81.3348 193.924 81.5252 194.387L82.9124 193.816ZM93.0524 193.816L94.4485 193.267C94.2229 192.693 93.6691 192.316 93.0524 192.316V193.816ZM102.308 217.372V218.872C102.804 218.872 103.269 218.627 103.548 218.217C103.827 217.807 103.886 217.285 103.704 216.823L102.308 217.372ZM97.2124 217.372L95.8259 216.8C95.6348 217.262 95.6873 217.79 95.9657 218.206C96.2441 218.622 96.7117 218.872 97.2124 218.872V217.372ZM106.936 193.816V192.316C106.329 192.316 105.782 192.682 105.55 193.244L106.936 193.816ZM116.348 193.816L117.735 194.389C117.926 193.926 117.874 193.398 117.595 192.982C117.317 192.566 116.849 192.316 116.348 192.316V193.816ZM104.7 222V223.5C105.308 223.5 105.855 223.134 106.087 222.573L104.7 222ZM95.8956 221.429L84.2996 193.245L81.5252 194.387L93.1212 222.571L95.8956 221.429ZM82.9124 195.316H93.0524V192.316H82.9124V195.316ZM91.6563 194.365L100.912 217.921L103.704 216.823L94.4485 193.267L91.6563 194.365ZM102.308 215.872H97.2124V218.872H102.308V215.872ZM98.5989 217.944L108.323 194.388L105.55 193.244L95.8259 216.8L98.5989 217.944ZM106.936 195.316H116.348V192.316H106.936V195.316ZM114.962 193.243L103.314 221.427L106.087 222.573L117.735 194.389L114.962 193.243ZM104.7 220.5H94.5084V223.5H104.7V220.5ZM118.902 222H117.402C117.402 222.828 118.074 223.5 118.902 223.5V222ZM118.902 193.816V192.316C118.074 192.316 117.402 192.988 117.402 193.816H118.902ZM128.782 193.816H130.282C130.282 192.988 129.611 192.316 128.782 192.316V193.816ZM128.782 222V223.5C129.611 223.5 130.282 222.828 130.282 222H128.782ZM119.474 189.188L120.482 188.077L120.482 188.077L119.474 189.188ZM119.474 181.7L120.482 182.811L120.482 182.811L119.474 181.7ZM128.21 181.648L127.223 182.777C127.229 182.783 127.236 182.789 127.243 182.794L128.21 181.648ZM128.21 189.188L129.235 190.283L129.236 190.282L128.21 189.188ZM120.402 222V193.816H117.402V222H120.402ZM118.902 195.316H128.782V192.316H118.902V195.316ZM127.282 193.816V222H130.282V193.816H127.282ZM128.782 220.5H118.902V223.5H128.782V220.5ZM123.842 189.196C122.332 189.196 121.261 188.783 120.482 188.077L118.467 190.299C119.906 191.604 121.748 192.196 123.842 192.196V189.196ZM120.482 188.077C119.685 187.354 119.31 186.509 119.31 185.444H116.31C116.31 187.36 117.046 189.011 118.467 190.299L120.482 188.077ZM119.31 185.444C119.31 184.379 119.685 183.534 120.482 182.811L118.467 180.589C117.046 181.877 116.31 183.528 116.31 185.444H119.31ZM120.482 182.811C121.261 182.105 122.332 181.692 123.842 181.692V178.692C121.748 178.692 119.906 179.284 118.467 180.589L120.482 182.811ZM123.842 181.692C125.366 181.692 126.444 182.096 127.223 182.777L129.198 180.519C127.758 179.259 125.924 178.692 123.842 178.692V181.692ZM127.243 182.794C128.004 183.437 128.374 184.226 128.374 185.288H131.374C131.374 183.369 130.635 181.731 129.178 180.502L127.243 182.794ZM128.374 185.288C128.374 186.446 127.983 187.345 127.185 188.094L129.236 190.282C130.657 188.951 131.374 187.25 131.374 185.288H128.374ZM127.186 188.093C126.454 188.777 125.398 189.196 123.842 189.196V192.196C125.961 192.196 127.818 191.609 129.235 190.283L127.186 188.093ZM141.235 220.596L140.542 221.926C140.549 221.93 140.557 221.934 140.564 221.938L141.235 220.596ZM135.463 215.396L134.182 216.177C134.187 216.184 134.192 216.192 134.197 216.2L135.463 215.396ZM135.411 200.368L134.13 199.587L134.127 199.593L135.411 200.368ZM140.975 195.22L141.662 196.554C141.667 196.551 141.672 196.548 141.677 196.546L140.975 195.22ZM156.523 195.064L155.852 196.406C155.858 196.408 155.863 196.411 155.869 196.414L156.523 195.064ZM161.983 200.004L163.259 199.214L163.259 199.214L161.983 200.004ZM163.959 209.156L165.455 209.271L165.455 209.271L163.959 209.156ZM163.855 210.404V211.904C164.631 211.904 165.279 211.312 165.349 210.54L163.855 210.404ZM141.547 210.404H140.047C140.047 211.232 140.719 211.904 141.547 211.904V210.404ZM141.547 205.204V203.704C140.719 203.704 140.047 204.376 140.047 205.204H141.547ZM158.603 205.204L159.147 206.602C159.82 206.34 160.211 205.637 160.078 204.927C159.944 204.218 159.325 203.704 158.603 203.704V205.204ZM154.859 206.66L153.36 206.619C153.346 207.122 153.585 207.597 153.996 207.886C154.406 208.176 154.935 208.24 155.403 208.058L154.859 206.66ZM154.131 203.332L152.8 204.022C152.806 204.035 152.813 204.048 152.82 204.06L154.131 203.332ZM152.051 201.148L151.28 202.434C151.287 202.439 151.294 202.443 151.302 202.447L152.051 201.148ZM145.863 201.148L145.114 199.849C145.106 199.853 145.099 199.857 145.092 199.862L145.863 201.148ZM143.835 203.384L145.167 204.074C145.17 204.068 145.174 204.061 145.177 204.055L143.835 203.384ZM143.939 211.808L142.626 212.533C142.632 212.544 142.639 212.555 142.645 212.567L143.939 211.808ZM146.435 214.148L145.747 215.481C145.759 215.487 145.77 215.493 145.782 215.498L146.435 214.148ZM153.819 214.356L154.368 215.752C154.376 215.749 154.384 215.745 154.393 215.742L153.819 214.356ZM156.783 212.484L157.865 211.444C157.313 210.871 156.411 210.828 155.807 211.345L156.783 212.484ZM161.983 217.892L163.094 218.9C163.624 218.316 163.611 217.421 163.065 216.852L161.983 217.892ZM156.991 221.324L157.531 222.723C157.538 222.721 157.546 222.718 157.553 222.715L156.991 221.324ZM149.971 220.968C146.832 220.968 144.157 220.38 141.906 219.254L140.564 221.938C143.305 223.308 146.455 223.968 149.971 223.968V220.968ZM141.928 219.266C139.683 218.096 137.965 216.537 136.73 214.592L134.197 216.2C135.735 218.623 137.864 220.531 140.542 221.926L141.928 219.266ZM136.744 214.615C135.547 212.651 134.935 210.412 134.935 207.856H131.935C131.935 210.916 132.676 213.704 134.182 216.177L136.744 214.615ZM134.935 207.856C134.935 205.293 135.533 203.07 136.696 201.143L134.127 199.593C132.654 202.034 131.935 204.803 131.935 207.856H134.935ZM136.692 201.149C137.898 199.17 139.544 197.644 141.662 196.554L140.289 193.886C137.691 195.223 135.629 197.128 134.13 199.587L136.692 201.149ZM141.677 196.546C143.796 195.424 146.203 194.848 148.931 194.848V191.848C145.766 191.848 142.869 192.52 140.273 193.894L141.677 196.546ZM148.931 194.848C151.492 194.848 153.79 195.374 155.852 196.406L157.194 193.722C154.681 192.466 151.917 191.848 148.931 191.848V194.848ZM155.869 196.414C157.898 197.398 159.504 198.849 160.708 200.794L163.259 199.214C161.759 196.791 159.724 194.949 157.178 193.714L155.869 196.414ZM160.708 200.794C161.884 202.694 162.511 205.059 162.511 207.96H165.511C165.511 204.621 164.786 201.682 163.259 199.214L160.708 200.794ZM162.511 207.96C162.511 208.259 162.496 208.618 162.464 209.041L165.455 209.271C165.492 208.793 165.511 208.355 165.511 207.96H162.511ZM162.464 209.041C162.429 209.486 162.395 209.895 162.361 210.268L165.349 210.54C165.384 210.15 165.42 209.727 165.455 209.271L162.464 209.041ZM163.855 208.904H141.547V211.904H163.855V208.904ZM143.047 210.404V205.204H140.047V210.404H143.047ZM141.547 206.704H158.603V203.704H141.547V206.704ZM158.06 203.806L154.316 205.262L155.403 208.058L159.147 206.602L158.06 203.806ZM156.359 206.701C156.399 205.203 156.117 203.817 155.442 202.604L152.82 204.06C153.186 204.719 153.389 205.552 153.36 206.619L156.359 206.701ZM155.463 202.642C154.848 201.455 153.954 200.514 152.801 199.849L151.302 202.447C151.951 202.822 152.444 203.337 152.8 204.022L155.463 202.642ZM152.823 199.862C151.687 199.18 150.388 198.868 148.983 198.868V201.868C149.936 201.868 150.682 202.076 151.28 202.434L152.823 199.862ZM148.983 198.868C147.577 198.868 146.272 199.181 145.114 199.849L146.613 202.447C147.257 202.075 148.032 201.868 148.983 201.868V198.868ZM145.092 199.862C143.962 200.539 143.097 201.507 142.494 202.713L145.177 204.055C145.544 203.32 146.031 202.797 146.635 202.434L145.092 199.862ZM142.504 202.694C141.886 203.884 141.607 205.24 141.607 206.712H144.607C144.607 205.618 144.814 204.756 145.167 204.074L142.504 202.694ZM141.607 206.712V208.22H144.607V206.712H141.607ZM141.607 208.22C141.607 209.808 141.926 211.264 142.626 212.533L145.253 211.083C144.843 210.342 144.607 209.406 144.607 208.22H141.607ZM142.645 212.567C143.384 213.826 144.43 214.801 145.747 215.481L147.123 212.815C146.291 212.385 145.673 211.8 145.233 211.049L142.645 212.567ZM145.782 215.498C147.104 216.138 148.621 216.428 150.283 216.428V213.428C148.964 213.428 147.915 213.198 147.089 212.798L145.782 215.498ZM150.283 216.428C151.799 216.428 153.175 216.221 154.368 215.752L153.271 212.96C152.522 213.254 151.541 213.428 150.283 213.428V216.428ZM154.393 215.742C155.568 215.256 156.689 214.54 157.759 213.623L155.807 211.345C154.936 212.092 154.082 212.624 153.246 212.97L154.393 215.742ZM155.702 213.524L160.902 218.932L163.065 216.852L157.865 211.444L155.702 213.524ZM160.872 216.884C159.681 218.198 158.209 219.215 156.43 219.933L157.553 222.715C159.726 221.838 161.581 220.568 163.094 218.9L160.872 216.884ZM156.451 219.925C154.688 220.605 152.539 220.968 149.971 220.968V223.968C152.811 223.968 155.343 223.568 157.531 222.723L156.451 219.925ZM193.371 185.6V184.1C192.542 184.1 191.871 184.772 191.871 185.6H193.371ZM203.667 185.6H205.167C205.167 184.772 204.495 184.1 203.667 184.1V185.6ZM203.667 222V223.5C204.495 223.5 205.167 222.828 205.167 222H203.667ZM193.371 222H191.871C191.871 222.828 192.542 223.5 193.371 223.5V222ZM179.331 222V223.5C180.159 223.5 180.831 222.828 180.831 222H179.331ZM169.035 222H167.535C167.535 222.828 168.206 223.5 169.035 223.5V222ZM169.035 185.6V184.1C168.206 184.1 167.535 184.772 167.535 185.6H169.035ZM179.331 185.6H180.831C180.831 184.772 180.159 184.1 179.331 184.1V185.6ZM194.099 207.804V209.304C194.927 209.304 195.599 208.632 195.599 207.804H194.099ZM178.603 207.804H177.103C177.103 208.632 177.774 209.304 178.603 209.304V207.804ZM178.603 199.276V197.776C177.774 197.776 177.103 198.448 177.103 199.276H178.603ZM194.099 199.276H195.599C195.599 198.448 194.927 197.776 194.099 197.776V199.276ZM193.371 187.1H203.667V184.1H193.371V187.1ZM202.167 185.6V222H205.167V185.6H202.167ZM203.667 220.5H193.371V223.5H203.667V220.5ZM194.871 222V185.6H191.871V222H194.871ZM179.331 220.5H169.035V223.5H179.331V220.5ZM170.535 222V185.6H167.535V222H170.535ZM169.035 187.1H179.331V184.1H169.035V187.1ZM177.831 185.6V222H180.831V185.6H177.831ZM194.099 206.304H178.603V209.304H194.099V206.304ZM180.103 207.804V199.276H177.103V207.804H180.103ZM178.603 200.776H194.099V197.776H178.603V200.776ZM192.599 199.276V207.804H195.599V199.276H192.599ZM227.673 222H226.173C226.173 222.828 226.845 223.5 227.673 223.5V222ZM227.673 216.748H229.173C229.173 216.507 229.115 216.27 229.004 216.056L227.673 216.748ZM226.997 215.448H225.497C225.497 215.689 225.555 215.926 225.666 216.14L226.997 215.448ZM225.541 202.188L224.522 203.289C224.536 203.302 224.55 203.314 224.565 203.327L225.541 202.188ZM216.909 201.564L217.34 203.001C217.351 202.997 217.362 202.994 217.373 202.991L216.909 201.564ZM213.373 203.332L212.029 203.999C212.23 204.403 212.602 204.696 213.043 204.795C213.483 204.895 213.945 204.79 214.3 204.511L213.373 203.332ZM210.045 196.624L209.226 195.368C208.589 195.783 208.363 196.609 208.701 197.291L210.045 196.624ZM215.765 194.232L216.129 195.687C216.134 195.686 216.139 195.685 216.145 195.683L215.765 194.232ZM233.081 196.52L232.111 197.664C232.117 197.669 232.123 197.674 232.129 197.679L233.081 196.52ZM236.877 222V223.5C237.705 223.5 238.377 222.828 238.377 222H236.877ZM213.633 221.324L214.292 219.976L213.633 221.324ZM210.045 218.204L208.762 218.981C208.767 218.989 208.772 218.997 208.777 219.005L210.045 218.204ZM210.149 209.312L208.922 208.45L208.917 208.456L210.149 209.312ZM214.257 206.4L214.763 207.812C214.771 207.809 214.779 207.806 214.787 207.803L214.257 206.4ZM228.037 205.36H229.537C229.537 204.532 228.865 203.86 228.037 203.86V205.36ZM228.037 210.508V212.008C228.865 212.008 229.537 211.336 229.537 210.508H228.037ZM219.353 211.288L218.424 210.111C218.413 210.119 218.403 210.127 218.393 210.136L219.353 211.288ZM219.405 215.448L218.476 216.625L218.476 216.625L219.405 215.448ZM225.021 215.448L225.793 216.734C225.798 216.731 225.802 216.728 225.807 216.725L225.021 215.448ZM226.997 212.952L228.403 212.43C228.185 211.843 227.626 211.453 226.999 211.452C226.373 211.451 225.812 211.839 225.593 212.425L226.997 212.952ZM228.349 216.592L229.798 216.98C229.878 216.68 229.864 216.361 229.755 216.07L228.349 216.592ZM225.281 221.012L226.1 222.269L226.107 222.264L225.281 221.012ZM229.173 222V216.748H226.173V222H229.173ZM229.004 216.056L228.328 214.756L225.666 216.14L226.342 217.44L229.004 216.056ZM228.497 215.448V205.776H225.497V215.448H228.497ZM228.497 205.776C228.497 203.883 227.893 202.228 226.517 201.049L224.565 203.327C225.131 203.812 225.497 204.549 225.497 205.776H228.497ZM226.56 201.087C225.217 199.844 223.25 199.388 221.017 199.388V202.388C222.944 202.388 223.993 202.799 224.522 203.289L226.56 201.087ZM221.017 199.388C219.496 199.388 217.97 199.642 216.445 200.137L217.373 202.991C218.621 202.585 219.834 202.388 221.017 202.388V199.388ZM216.478 200.127C214.942 200.588 213.588 201.256 212.446 202.153L214.3 204.511C215.1 203.883 216.103 203.372 217.34 203.001L216.478 200.127ZM214.717 202.665L211.389 195.957L208.701 197.291L212.029 203.999L214.717 202.665ZM210.864 197.88C212.294 196.948 214.04 196.209 216.129 195.687L215.401 192.777C213.052 193.364 210.985 194.22 209.226 195.368L210.864 197.88ZM216.145 195.683C218.28 195.125 220.389 194.848 222.473 194.848V191.848C220.12 191.848 217.757 192.161 215.386 192.781L216.145 195.683ZM222.473 194.848C226.834 194.848 229.977 195.856 232.111 197.664L234.051 195.376C231.193 192.954 227.264 191.848 222.473 191.848V194.848ZM232.129 197.679C234.198 199.38 235.377 202.151 235.377 206.348H238.377C238.377 201.601 237.026 197.82 234.034 195.361L232.129 197.679ZM235.377 206.348V222H238.377V206.348H235.377ZM236.877 220.5H227.673V223.5H236.877V220.5ZM219.353 220.968C217.263 220.968 215.595 220.614 214.292 219.976L212.974 222.672C214.791 223.56 216.937 223.968 219.353 223.968V220.968ZM214.292 219.976C212.952 219.322 211.98 218.459 211.313 217.403L208.777 219.005C209.774 220.584 211.194 221.801 212.974 222.672L214.292 219.976ZM211.328 217.427C210.681 216.358 210.349 215.156 210.349 213.784H207.349C207.349 215.671 207.814 217.415 208.762 218.981L211.328 217.427ZM210.349 213.784C210.349 212.312 210.713 211.13 211.381 210.168L208.917 208.456C207.852 209.99 207.349 211.789 207.349 213.784H210.349ZM211.376 210.174C212.06 209.201 213.145 208.392 214.763 207.812L213.751 204.988C211.694 205.725 210.04 206.858 208.922 208.45L211.376 210.174ZM214.787 207.803C216.394 207.197 218.571 206.86 221.381 206.86V203.86C218.367 203.86 215.795 204.216 213.727 204.997L214.787 207.803ZM221.381 206.86H228.037V203.86H221.381V206.86ZM226.537 205.36V210.508H229.537V205.36H226.537ZM228.037 209.008H222.733V212.008H228.037V209.008ZM222.733 209.008C221.063 209.008 219.497 209.263 218.424 210.111L220.283 212.465C220.526 212.273 221.214 212.008 222.733 212.008V209.008ZM218.393 210.136C217.401 210.962 216.917 212.09 216.917 213.368H219.917C219.917 212.912 220.057 212.654 220.313 212.44L218.393 210.136ZM216.917 213.368C216.917 214.676 217.443 215.81 218.476 216.625L220.335 214.271C220.05 214.046 219.917 213.793 219.917 213.368H216.917ZM218.476 216.625C219.481 217.419 220.749 217.728 222.109 217.728V214.728C221.181 214.728 220.647 214.517 220.335 214.271L218.476 216.625ZM222.109 217.728C223.438 217.728 224.678 217.403 225.793 216.734L224.249 214.162C223.631 214.533 222.93 214.728 222.109 214.728V217.728ZM225.807 216.725C227.026 215.975 227.883 214.861 228.402 213.479L225.593 212.425C225.279 213.262 224.819 213.811 224.235 214.171L225.807 216.725ZM225.591 213.474L226.943 217.114L229.755 216.07L228.403 212.43L225.591 213.474ZM226.9 216.204C226.465 217.829 225.643 218.977 224.456 219.76L226.107 222.264C227.97 221.036 229.193 219.238 229.798 216.98L226.9 216.204ZM224.463 219.755C223.292 220.517 221.631 220.968 219.353 220.968V223.968C221.997 223.968 224.289 223.448 226.1 222.269L224.463 219.755ZM250.458 222L249.07 222.571C249.302 223.133 249.85 223.5 250.458 223.5V222ZM238.862 193.816V192.316C238.361 192.316 237.894 192.565 237.615 192.981C237.337 193.397 237.284 193.924 237.474 194.387L238.862 193.816ZM249.002 193.816L250.398 193.267C250.172 192.693 249.618 192.316 249.002 192.316V193.816ZM258.258 217.372V218.872C258.754 218.872 259.218 218.627 259.497 218.217C259.777 217.807 259.835 217.285 259.654 216.823L258.258 217.372ZM253.162 217.372L251.775 216.8C251.584 217.262 251.636 217.79 251.915 218.206C252.193 218.622 252.661 218.872 253.162 218.872V217.372ZM262.886 193.816V192.316C262.278 192.316 261.731 192.682 261.499 193.244L262.886 193.816ZM272.298 193.816L273.684 194.389C273.875 193.926 273.823 193.398 273.544 192.982C273.266 192.566 272.798 192.316 272.298 192.316V193.816ZM260.65 222V223.5C261.257 223.5 261.804 223.134 262.036 222.573L260.65 222ZM251.845 221.429L240.249 193.245L237.474 194.387L249.07 222.571L251.845 221.429ZM238.862 195.316H249.002V192.316H238.862V195.316ZM247.606 194.365L256.862 217.921L259.654 216.823L250.398 193.267L247.606 194.365ZM258.258 215.872H253.162V218.872H258.258V215.872ZM254.548 217.944L264.272 194.388L261.499 193.244L251.775 216.8L254.548 217.944ZM262.886 195.316H272.298V192.316H262.886V195.316ZM270.911 193.243L259.263 221.427L262.036 222.573L273.684 194.389L270.911 193.243ZM260.65 220.5H250.458V223.5H260.65V220.5ZM280.122 220.596L279.429 221.926C279.436 221.93 279.444 221.934 279.451 221.938L280.122 220.596ZM274.35 215.396L273.069 216.177C273.074 216.184 273.079 216.192 273.084 216.2L274.35 215.396ZM274.298 200.368L273.017 199.587L273.014 199.593L274.298 200.368ZM279.862 195.22L280.548 196.554C280.554 196.551 280.559 196.548 280.564 196.546L279.862 195.22ZM295.41 195.064L294.739 196.406C294.745 196.408 294.75 196.411 294.756 196.414L295.41 195.064ZM300.87 200.004L302.145 199.214L302.145 199.214L300.87 200.004ZM302.846 209.156L304.342 209.271L304.342 209.271L302.846 209.156ZM302.742 210.404V211.904C303.518 211.904 304.166 211.312 304.236 210.54L302.742 210.404ZM280.434 210.404H278.934C278.934 211.232 279.606 211.904 280.434 211.904V210.404ZM280.434 205.204V203.704C279.606 203.704 278.934 204.376 278.934 205.204H280.434ZM297.49 205.204L298.034 206.602C298.706 206.34 299.097 205.637 298.964 204.927C298.831 204.218 298.212 203.704 297.49 203.704V205.204ZM293.746 206.66L292.247 206.619C292.233 207.122 292.472 207.597 292.882 207.886C293.293 208.176 293.821 208.24 294.29 208.058L293.746 206.66ZM293.018 203.332L291.686 204.022C291.693 204.035 291.7 204.048 291.707 204.06L293.018 203.332ZM290.938 201.148L290.166 202.434C290.174 202.439 290.181 202.443 290.188 202.447L290.938 201.148ZM284.75 201.148L284 199.849C283.993 199.853 283.986 199.857 283.978 199.862L284.75 201.148ZM282.722 203.384L284.054 204.074C284.057 204.068 284.06 204.061 284.064 204.055L282.722 203.384ZM282.826 211.808L281.513 212.533C281.519 212.544 281.525 212.555 281.532 212.567L282.826 211.808ZM285.322 214.148L284.634 215.481C284.645 215.487 284.657 215.493 284.669 215.498L285.322 214.148ZM292.706 214.356L293.254 215.752C293.263 215.749 293.271 215.745 293.279 215.742L292.706 214.356ZM295.67 212.484L296.751 211.444C296.2 210.871 295.297 210.828 294.694 211.345L295.67 212.484ZM300.87 217.892L301.981 218.9C302.511 218.316 302.498 217.421 301.951 216.852L300.87 217.892ZM295.878 221.324L296.418 222.723C296.425 222.721 296.432 222.718 296.439 222.715L295.878 221.324ZM288.858 220.968C285.718 220.968 283.044 220.38 280.793 219.254L279.451 221.938C282.192 223.308 285.342 223.968 288.858 223.968V220.968ZM280.815 219.266C278.57 218.096 276.851 216.537 275.616 214.592L273.084 216.2C274.622 218.623 276.751 220.531 279.429 221.926L280.815 219.266ZM275.631 214.615C274.434 212.651 273.822 210.412 273.822 207.856H270.822C270.822 210.916 271.562 213.704 273.069 216.177L275.631 214.615ZM273.822 207.856C273.822 205.293 274.42 203.07 275.582 201.143L273.014 199.593C271.541 202.034 270.822 204.803 270.822 207.856H273.822ZM275.579 201.149C276.784 199.17 278.431 197.644 280.548 196.554L279.176 193.886C276.578 195.223 274.516 197.128 273.017 199.587L275.579 201.149ZM280.564 196.546C282.683 195.424 285.09 194.848 287.818 194.848V191.848C284.653 191.848 281.756 192.52 279.16 193.894L280.564 196.546ZM287.818 194.848C290.378 194.848 292.677 195.374 294.739 196.406L296.081 193.722C293.567 192.466 290.804 191.848 287.818 191.848V194.848ZM294.756 196.414C296.785 197.398 298.391 198.849 299.595 200.794L302.145 199.214C300.645 196.791 298.611 194.949 296.064 193.714L294.756 196.414ZM299.595 200.794C300.771 202.694 301.398 205.059 301.398 207.96H304.398C304.398 204.621 303.673 201.682 302.145 199.214L299.595 200.794ZM301.398 207.96C301.398 208.259 301.383 208.618 301.35 209.041L304.342 209.271C304.378 208.793 304.398 208.355 304.398 207.96H301.398ZM301.35 209.041C301.316 209.486 301.282 209.895 301.248 210.268L304.236 210.54C304.271 210.15 304.306 209.727 304.342 209.271L301.35 209.041ZM302.742 208.904H280.434V211.904H302.742V208.904ZM281.934 210.404V205.204H278.934V210.404H281.934ZM280.434 206.704H297.49V203.704H280.434V206.704ZM296.946 203.806L293.202 205.262L294.29 208.058L298.034 206.602L296.946 203.806ZM295.245 206.701C295.286 205.203 295.003 203.817 294.329 202.604L291.707 204.06C292.073 204.719 292.275 205.552 292.247 206.619L295.245 206.701ZM294.35 202.642C293.734 201.455 292.841 200.514 291.688 199.849L290.188 202.447C290.838 202.822 291.331 203.337 291.686 204.022L294.35 202.642ZM291.71 199.862C290.574 199.18 289.275 198.868 287.87 198.868V201.868C288.823 201.868 289.569 202.076 290.166 202.434L291.71 199.862ZM287.87 198.868C286.464 198.868 285.159 199.181 284 199.849L285.5 202.447C286.144 202.075 286.919 201.868 287.87 201.868V198.868ZM283.978 199.862C282.849 200.539 281.983 201.507 281.38 202.713L284.064 204.055C284.431 203.32 284.918 202.797 285.522 202.434L283.978 199.862ZM281.39 202.694C280.773 203.884 280.494 205.24 280.494 206.712H283.494C283.494 205.618 283.7 204.756 284.054 204.074L281.39 202.694ZM280.494 206.712V208.22H283.494V206.712H280.494ZM280.494 208.22C280.494 209.808 280.812 211.264 281.513 212.533L284.139 211.083C283.73 210.342 283.494 209.406 283.494 208.22H280.494ZM281.532 212.567C282.27 213.826 283.317 214.801 284.634 215.481L286.01 212.815C285.178 212.385 284.56 211.8 284.12 211.049L281.532 212.567ZM284.669 215.498C285.991 216.138 287.508 216.428 289.17 216.428V213.428C287.851 213.428 286.802 213.198 285.975 212.798L284.669 215.498ZM289.17 216.428C290.686 216.428 292.062 216.221 293.254 215.752L292.157 212.96C291.409 213.254 290.427 213.428 289.17 213.428V216.428ZM293.279 215.742C294.454 215.256 295.576 214.54 296.646 213.623L294.694 211.345C293.823 212.092 292.968 212.624 292.132 212.97L293.279 215.742ZM294.589 213.524L299.789 218.932L301.951 216.852L296.751 211.444L294.589 213.524ZM299.759 216.884C298.568 218.198 297.095 219.215 295.317 219.933L296.439 222.715C298.612 221.838 300.468 220.568 301.981 218.9L299.759 216.884ZM295.338 219.925C293.575 220.605 291.426 220.968 288.858 220.968V223.968C291.698 223.968 294.229 223.568 296.418 222.723L295.338 219.925ZM331.737 194.7L331.056 196.036C331.063 196.04 331.07 196.043 331.077 196.047L331.737 194.7ZM335.897 198.756L334.581 199.476C334.585 199.482 334.588 199.489 334.592 199.495L335.897 198.756ZM337.457 222V223.5C338.286 223.5 338.957 222.828 338.957 222H337.457ZM327.577 222H326.077C326.077 222.828 326.749 223.5 327.577 223.5V222ZM326.329 203.124L325.187 204.097C325.2 204.112 325.214 204.127 325.227 204.141L326.329 203.124ZM320.089 202.448L320.781 203.779C320.795 203.772 320.809 203.764 320.822 203.757L320.089 202.448ZM317.333 222V223.5C318.162 223.5 318.833 222.828 318.833 222H317.333ZM307.453 222H305.953C305.953 222.828 306.625 223.5 307.453 223.5V222ZM307.453 193.816V192.316C306.625 192.316 305.953 192.988 305.953 193.816H307.453ZM316.865 193.816H318.365C318.365 192.988 317.694 192.316 316.865 192.316V193.816ZM316.865 201.824L315.681 202.745C316.075 203.251 316.746 203.451 317.352 203.243C317.958 203.035 318.365 202.465 318.365 201.824H316.865ZM315.045 199.484L313.717 198.786C313.444 199.307 313.5 199.94 313.861 200.405L315.045 199.484ZM319.465 194.908L320.175 196.229C320.181 196.226 320.187 196.223 320.194 196.219L319.465 194.908ZM325.809 194.848C327.781 194.848 329.52 195.253 331.056 196.036L332.419 193.364C330.419 192.344 328.206 191.848 325.809 191.848V194.848ZM331.077 196.047C332.549 196.768 333.715 197.892 334.581 199.476L337.213 198.036C336.069 195.945 334.462 194.365 332.397 193.353L331.077 196.047ZM334.592 199.495C335.465 201.037 335.957 203.133 335.957 205.88H338.957C338.957 202.803 338.41 200.149 337.203 198.017L334.592 199.495ZM335.957 205.88V222H338.957V205.88H335.957ZM337.457 220.5H327.577V223.5H337.457V220.5ZM329.077 222V207.492H326.077V222H329.077ZM329.077 207.492C329.077 205.331 328.64 203.416 327.431 202.107L325.227 204.141C325.683 204.635 326.077 205.632 326.077 207.492H329.077ZM327.471 202.151C326.336 200.818 324.755 200.22 322.949 200.22V203.22C324.055 203.22 324.728 203.558 325.187 204.097L327.471 202.151ZM322.949 200.22C321.665 200.22 320.458 200.523 319.356 201.139L320.822 203.757C321.454 203.403 322.153 203.22 322.949 203.22V200.22ZM319.397 201.117C318.219 201.73 317.33 202.688 316.72 203.909L319.403 205.251C319.763 204.53 320.226 204.067 320.781 203.779L319.397 201.117ZM316.72 203.909C316.095 205.159 315.833 206.678 315.833 208.376H318.833C318.833 206.954 319.057 205.942 319.403 205.251L316.72 203.909ZM315.833 208.376V222H318.833V208.376H315.833ZM317.333 220.5H307.453V223.5H317.333V220.5ZM308.953 222V193.816H305.953V222H308.953ZM307.453 195.316H316.865V192.316H307.453V195.316ZM315.365 193.816V201.824H318.365V193.816H315.365ZM318.049 200.903L316.229 198.563L313.861 200.405L315.681 202.745L318.049 200.903ZM316.373 200.182C317.321 198.377 318.59 197.081 320.175 196.229L318.756 193.587C316.597 194.746 314.919 196.5 313.717 198.786L316.373 200.182ZM320.194 196.219C321.821 195.315 323.681 194.848 325.809 194.848V191.848C323.223 191.848 320.854 192.421 318.737 193.597L320.194 196.219Z" fill="#9D2DC5" mask="url(#path-6-outside-1_79_9)"/>
</svg>
